<?xml version="1.0" encoding="UTF-8"?>
<svg id="Layer_1" data-name="Layer 1" xmlns="http://www.w3.org/2000/svg" version="1.1" viewBox="0 0 24 24">
  <defs>
    <style>
      .cls-1 {
        stroke-width: 0px;
      }

      .cls-1, .cls-2 {
        fill: none;
      }

      .cls-2 {
        stroke: #000;
        stroke-linecap: round;
        stroke-linejoin: round;
        stroke-width: 2px;
      }
    </style>
  </defs>
  <path class="cls-1" d="M0,0h24v24H0V0Z"/>
  <path class="cls-2" d="M4,13c3.7.4,6.6,3.3,7,7,1.8-1,2.9-2.9,3-5,3.4-1.2,5.8-4.4,6-8,0-1.7-1.3-3-3-3-3.6.2-6.8,2.6-8,6-2.1,0-4,1.2-5,3"/>
  <path class="cls-2" d="M7,14c-2.1,1.2-3.3,3.6-3,6,2.4.3,4.8-.9,6-3"/>
  <path class="cls-2" d="M14,9c0,.6.4,1,1,1s1-.4,1-1-.4-1-1-1-1,.4-1,1"/>
  <path class="cls-2" d="M22,22l-5-5"/>
  <path class="cls-2" d="M17,22l5-5"/>
</svg>